<svg id="Esiplaan" xmlns="http://www.w3.org/2000/svg" viewBox="0 0 600 500"><defs><style>.cls-1{fill:#1b1464;}.cls-2{fill:#00c064;}.cls-2,.cls-7,.cls-8{fill-rule:evenodd;}.cls-3{fill:#fff;}.cls-4,.cls-7{fill:#fdcb99;}.cls-5{fill:#d1d3d4;}.cls-6,.cls-8{fill:none;stroke-linecap:round;stroke-linejoin:round;}.cls-6{stroke:#18b75a;stroke-width:4.89902px;}.cls-8{stroke:#fff;stroke-width:5.23878px;}</style></defs><path class="cls-1" d="M154.78218,218.0009a15.55314,15.55314,0,0,0-21.8191-2.77905h0a15.55318,15.55318,0,0,0-2.77929,21.81909l9.52,12.29931,24.59839-19.04Zm-13.79444,12.65771a5.48047,5.48047,0,1,1,5.48047-5.48047A5.48037,5.48037,0,0,1,140.98774,230.65861Z"/><path class="cls-2" d="M434.18954,401.39476c5.85017-7.8392,27.72313-39.14212,27.72334-46.16782.00092-30.57365.00092-55.51674-9.66637-70.459-16.05743-24.81915-51.27161-43.28664-88.7269-38.72848-57.33774,6.97779-57.33774,90.71227-57.33774,90.71227l-49.94929-50.8077-46.81209,44.37689s51.50912,15.32114,79.99759,70.9972C298.99332,420.03139,385.49026,466.65161,434.18954,401.39476Z"/><path class="cls-1" d="M180.67833,203.171l-72.65471,57.014a8.46152,8.46152,0,0,0-1.13045,11.9051L187.8594,375.26914a8.46152,8.46152,0,0,0,11.8325,1.73288l72.6547-57.014a8.4615,8.4615,0,0,0,1.13045-11.90509L192.51082,204.90382A8.4615,8.4615,0,0,0,180.67833,203.171Z"/><rect class="cls-3" x="124.77006" y="244.07027" width="131.21823" height="92.52732" transform="translate(301.25719 -38.67076) rotate(51.8782)"/><path class="cls-4" d="M322.04844,227.8238c-11.89744,2.46154-15.38462-14.46154-17.84615-19.07692-4.34688-8.15039-3.82741-5.49413-8.61539-21.53846-3.832-12.84085-.63232-24.63552,1.08158-35.31276,1.14827-7.15349,2.4521-11.97037,2.4521-11.97037l16.774-18.87072c29.53847-1.641,38.83727,1.56054,57.4359,27.28205,19.28205,26.66667,18.05128,47.17949,9.4359,63.58975C374.32488,228.00543,385.51,248.311,385.51,248.311s-23.386,12.51267-37,11c-7.94152-.88239-7.212-5.47746-6.443-14.4389a16.75338,16.75338,0,0,0-1.86956-9.28432C338.059,231.55818,331.01606,225.96843,322.04844,227.8238Z"/><path class="cls-1" d="M318.05128,187.882a1.87016,1.87016,0,0,0-2.13949-1.46252l-5.353,1.0126-.71573-14.915a1.83054,1.83054,0,0,0-1.91873-1.74017l-.01429.00081a1.83209,1.83209,0,0,0-1.72588,1.91792l.81325,17.01627a1.83343,1.83343,0,0,0,.69279,1.351,1.86111,1.86111,0,0,0,1.24022.38839c.07858-.00445.15675-.016.23492-.02764l7.42343-1.40218A1.83933,1.83933,0,0,0,318.05128,187.882Z"/><path class="cls-1" d="M325.71618,197.70245a1.891,1.891,0,0,0-2.25207,1.23111c-.02372.08734-.75683,2.19984-5.75555,2.00282a1.85061,1.85061,0,0,0-1.88439,1.77641,1.8298,1.8298,0,0,0,1.77641,1.88439c.56714.018,1.10409.00913,1.60411-.01919,6.72883-.38109,7.76809-4.55326,7.81431-4.74936A1.79114,1.79114,0,0,0,325.71618,197.70245Z"/><path class="cls-1" d="M369.08164,156.84246l-35.62337,8.29616a9.95207,9.95207,0,0,0-.33629-1.794,10.17687,10.17687,0,0,0-17.35734-2.64656,9.0091,9.0091,0,0,0-6.99-2.99724c-.14286.00809-.28573.01618-.42818.03142a9.16529,9.16529,0,0,0-6.538,3.84581,10.19612,10.19612,0,1,0-7.84889,15.9375,10.28845,10.28845,0,0,0,3.22693-.72021,10.16448,10.16448,0,0,0,6.25228-11.16765c.19813-.18679.44692-.31733.54882-.59a6.00582,6.00582,0,0,1,4.75169-3.65865c.071-.01119.1496-.01564.221-.01968,2.43938-.13816,4.206,1.779,4.96441,2.7859a10.18863,10.18863,0,0,0,19.10249,7.01575,10.00816,10.00816,0,0,0,.487-2.28309c.05863-.0087.11577-.01194.17767-.02619l36.25084-8.44635a1.835,1.835,0,0,0,1.35093-2.212A1.80346,1.80346,0,0,0,369.08164,156.84246ZM299.411,169.89032a6.55445,6.55445,0,1,1-3.44691-8.60468A6.52658,6.52658,0,0,1,299.411,169.89032Zm30.2524-.17266a6.571,6.571,0,1,1,.05294-5.01206A6.52653,6.52653,0,0,1,329.66342,169.71766Z"/><rect class="cls-5" x="137.8934" y="264.46126" width="19.13041" height="19.13041" transform="translate(-137.2471 148.41912) rotate(-37.90824)"/><polyline class="cls-6" points="141.781 273.976 149.664 276.859 153.491 247.377"/><rect class="cls-5" x="161.32256" y="242.75575" width="36.78924" height="10.93084" transform="translate(-114.58566 162.79372) rotate(-37.90824)"/><rect class="cls-5" x="159.9484" y="292.78374" width="19.13041" height="19.13041" transform="translate(-149.9947 167.94585) rotate(-37.90824)"/><polyline class="cls-6" points="163.836 302.299 171.719 305.182 175.546 275.7"/><polygon class="cls-5" points="213.433 274.747 190.617 292.157 183.901 283.533 206.717 266.122 213.433 274.747"/><polygon class="cls-5" points="237.638 303.875 214.822 321.286 208.106 312.661 230.922 295.251 237.638 303.875"/><rect class="cls-5" x="182.00339" y="321.10623" width="19.13041" height="19.13041" transform="translate(-162.7423 187.47257) rotate(-37.90824)"/><path class="cls-7" d="M256.23258,285.94405c-1.041-6.76011-3.24-27.0821-12.83364-32.72972-9.823-5.37792-27.94913-1.26907-31.34652,9.13417-.31043,11.44961,13.54537,6.86019,20.49383,6.01278a17.595,17.595,0,0,1,6.40986-.14041C243.54417,268.85491,252.649,282.76825,256.23258,285.94405Z"/><path class="cls-7" d="M265.31174,352.675S222.95,308.85929,211.43538,304.34057s-13.2254.13328-13.45641,1.53425c-.4195,2.54409,2.0817,4.0639,7.69163,9.19658,6.37669,5.8342,18.4204,14.08291,18.66825,18.41611,0,0-9.49809.52835-12.29156,3.93073s-15.01015,10.33883-14.06832,17.37029-3.84927,10.54638,0,21.60867,6.08729,16.20779,11.69089,17.438c3.73564.82016,3.84516-2.53609,7.66055-5.04138,3.063-2.0112-3.66005-13.84311-3.66005-13.84311s16.93223,12.91181,31.749,16.22471,14.9521-.07372,19.89234-2.38163S265.31174,352.675,265.31174,352.675Z"/><path class="cls-2" d="M431.64975,269.90238c-23.28712-9.74433-40.13678,4.47635-47.73452,23.45072s-13.52261,90.62462-13.52261,90.62462-93.5615-38.19076-107.01743-35.17409-33.03334,36.27495-27.735,51.25152c4.00078,11.30887,38.11191,24.40116,133.00078,45.30887,59,13,93.27126-43.261,93.27194-90.13708C461.9138,292.74185,451.96081,278.4014,431.64975,269.90238Z"/><path class="cls-8" d="M385.49026,313.7843c-7.59774,18.97437-8.51159,77.68083-8.51159,77.68083S276.83112,345.787,263.37519,348.80363,231.184,390.69363,236.13,405.7902"/><path class="cls-1" d="M296.66848,151.89566s11.64829-16.41284,30.91842-19.76417c28.30769-4.92307,0,13.74359,14.15385,15.58975s24,4.718,25.84615,22.5641,11.07692,6.76923,19.69231,0,8-76.71795-47.38462-71.79487a28.81135,28.81135,0,0,1,7.17949,4.718c-24.41026-6.05128-40.61538,6.5641-40.61538,6.5641s2.20512-.94872,8.1282,1.58974C303.43306,112.8238,290.4587,137.2597,296.66848,151.89566Z"/></svg>